<svg width="32" height="33" viewBox="0 0 32 33" fill="none" xmlns="http://www.w3.org/2000/svg">
<path d="M30.2739 24.9099C30.2739 24.9099 29.7703 22.667 29.4045 21.6145C29.0382 20.5614 27.2989 21.065 27.2989 21.065L25.6443 17.7408L26.2948 14.95C26.2948 14.95 27.9826 14.9224 28.9724 14.7331C29.9621 14.5433 29.9433 13.8898 29.6306 13.352C28.9102 12.1121 26.6315 10.2565 26.6315 10.2565C26.1274 5.59676 23.7906 3.18245 20.3733 2.62276L21.7605 1.97576L20.7763 0.564575L18.4426 2.40439L15.9303 0.714075L15.2247 2.28345L16.3161 2.71814C16.1951 2.73958 16.0722 2.76201 15.9497 2.78651C10.1986 3.92633 9.46794 10.1249 9.46794 10.1249C9.46794 10.1249 7.64032 11.927 6.78832 12.6954C5.93675 13.4638 6.07657 13.8536 6.42913 14.1465C6.78169 14.4388 10.0991 13.551 10.0991 13.551C10.0991 13.551 10.4439 14.5979 10.5184 14.9103C10.5929 15.2215 9.89857 16.8465 9.36582 17.9624C9.03063 18.6629 9.99188 19.2756 11.0817 19.1093C11.8623 18.99 11.8006 19.5506 11.7572 20.3277C11.7408 20.6175 12.2312 20.8252 12.5741 20.8308C12.3536 20.9691 12.1133 21.1981 12.2164 21.4216C12.5138 22.0676 12.7878 21.538 13.097 22.1528C13.4562 22.8675 13.7271 24.1916 14.8822 24.1033C16.0379 24.0156 17.2608 23.2278 17.2608 23.2278L18.3731 25.3676L16.9078 28.2973C16.9078 28.2973 15.8051 29.3412 14.9108 32.0254C24.3043 28.2228 31.0146 29.7886 31.9091 27.5523C32.4669 26.159 30.2739 24.9099 30.2739 24.9099Z" fill="#1351B4"/>
<path d="M7.1735 26.3789C8.67044 25.1447 9.15512 22.8498 8.21481 20.8008C7.11687 18.4079 4.49587 17.2614 2.36012 18.2416C0.225375 19.2206 -0.615938 21.9554 0.482 24.3488C1.48356 26.5315 3.75094 27.6713 5.76225 27.1131L8.02556 32.0474C8.18781 32.3994 8.64187 32.5377 9.04037 32.3546C9.43987 32.1719 9.63169 31.7367 9.47 31.3851L7.1735 26.3789ZM2.077 23.6166C1.37444 22.0864 1.91169 20.338 3.278 19.7114C4.64337 19.0849 6.32037 19.818 7.02194 21.3492C7.724 22.8793 7.18675 24.6284 5.82094 25.2538C4.45506 25.8809 2.7785 25.1478 2.077 23.6166Z" fill="#1351B4"/>
</svg>
