<svg width="10" height="16" viewBox="0 0 10 16" fill="none" xmlns="http://www.w3.org/2000/svg">
<path d="M5.00031 0.946289C2.36445 0.946089 0.227425 3.43498 0.227264 6.50529C0.227092 9.57598 5.00031 15.9463 5.00031 15.9463C5.00031 15.9463 9.77288 9.5756 9.77272 6.50529C9.77254 3.43516 7.63602 0.946477 5.00031 0.946289ZM5.00031 1.30205C7.46732 1.3022 9.4672 3.63174 9.46736 6.50536C9.4672 9.37899 5.00031 15.3696 5.00031 15.3696C5.00031 15.3696 0.532783 9.37918 0.532622 6.50536C0.532751 3.63155 2.53298 1.30186 5.00031 1.30205ZM5.00031 3.94599C4.71172 3.94592 4.42594 4.01206 4.1593 4.14065C3.89265 4.26923 3.65037 4.45774 3.44627 4.6954C3.24218 4.93307 3.08027 5.21523 2.9698 5.52579C2.85933 5.83635 2.80247 6.16921 2.80244 6.50536C2.80238 6.84159 2.85919 7.17453 2.96962 7.48517C3.08005 7.79581 3.24194 8.07807 3.44604 8.31581C3.65015 8.55356 3.89246 8.74213 4.15915 8.87076C4.42584 8.99939 4.71167 9.06556 5.00031 9.06549C5.28891 9.06546 5.57467 8.99922 5.84128 8.87055C6.10789 8.74187 6.35013 8.55328 6.55417 8.31555C6.7582 8.07781 6.92004 7.79559 7.03043 7.485C7.14082 7.1744 7.1976 6.84152 7.19754 6.50536C7.1975 5.82659 6.96599 5.17563 6.55394 4.69567C6.14189 4.2157 5.58304 3.94604 5.00031 3.94599ZM5.00031 4.20738C5.52346 4.20753 6.02514 4.44967 6.39506 4.88056C6.76498 5.31145 6.97286 5.89582 6.97299 6.5052C6.97303 7.1147 6.76523 7.69926 6.39529 8.13031C6.02535 8.56137 5.52357 8.80361 5.00031 8.80376C4.74117 8.80378 4.48456 8.74435 4.24513 8.62884C4.00571 8.51334 3.78816 8.34403 3.60492 8.13058C3.42168 7.91713 3.27632 7.66373 3.17716 7.38485C3.078 7.10596 3.02697 6.80705 3.027 6.5052C3.02712 5.89569 3.23509 5.31121 3.60515 4.8803C3.97521 4.44938 4.47706 4.20733 5.00031 4.20738Z" fill="black"/>
</svg>
